Simulation
nRows=39
nColumns=15
endheader
time  TH_x TH_y TH_z SC_y  SC_z  SC_x  AC_y  AC_z  AC_x  GH_y  GH_z  GH_yy  EL_x  PS_y
2.0666666666666664  0.000000  0.000000  0.000000  -37.55019270976268  16.051993441097654  30.811313137991284  68.79962083876929  8.420808315745159  19.729926206478574  47.717233288477935  71.75755919419011  -24.707532734655977  16.20625795736726  120.000000
2.1071895424836597  0.000000  0.000000  0.000000  -37.56411500359183  16.050928823171535  30.84269661246637  68.74909381632098  8.454465362546152  19.739302096188577  47.74486006745693  71.72603285149773  -24.72529884713037  16.24310098944948  120.000000
2.1477124183006535  0.000000  0.000000  0.000000  -37.566448194613834  16.040766701789554  30.886028564538847  68.67128686275197  8.473995247914146  19.719339852289313  47.76572903904038  71.67558852900227  -24.80650531594221  16.2833085642262  120.000000
2.188235294117647  0.000000  0.000000  0.000000  -37.55048727977669  16.016981200617252  30.927231725036787  68.57378264001747  8.471634435762875  19.657501368582363  47.773687378504334  71.60907829553608  -24.972387194360284  16.30919211718486  120.000000
2.22875816993464  0.000000  0.000000  0.000000  -37.50986153243208  15.975375153798062  30.951636131694165  68.46383755146019  8.441205917000202  19.54199968562177  47.76300744708367  71.52891121417443  -25.24262576146542  16.304054847048178  120.000000
2.269281045751634  0.000000  0.000000  0.000000  -37.43909737231628  15.912409536573078  30.94589310755797  68.34730356107892  8.378455354244773  19.362991654416362  47.72939918929756  71.4363324009398  -25.63361575292044  16.254208664606566  120.000000
2.3098039215686272  0.000000  0.000000  0.000000  -37.33434307830857  15.825284445071897  30.89982501947721  68.22733075033555  8.28148941945397  19.113391126797897  47.670887302666635  71.33030218046088  -26.156703279894643  16.1513214297836  120.000000
2.3503267973856206  0.000000  0.000000  0.000000  -37.19378175582187  15.711946546623686  30.807556643947798  68.10341150708679  8.150817632660983  18.789221221430534  47.58831383833204  71.20674252092053  -26.816993391334297  15.994015916040919  120.000000
2.390849673202614  0.000000  0.000000  0.000000  -37.01740611595899  15.571116146204938  30.667664685142277  67.97140161064881  7.989094351080515  18.38945342664258  47.485374876522236  71.0584571973815  -27.613712577416607  15.78751264746482  120.000000
2.4313725490196076  0.000000  0.000000  0.000000  -36.80621865573989  15.4024136256152  30.482267401088613  67.82442729174632  7.800326062190435  17.915555206987005  47.368129927963814  70.8760464780144  -28.541544887449167  15.541611143971972  120.000000
2.471895424836601  0.000000  0.000000  0.000000  -36.56154988734663  15.206410252506242  30.255829243168694  67.65425374280717  7.589274442411916  17.370788811014002  47.24423716562641  70.6491692124716  -29.59238369361212  15.268331098622054  120.000000
2.5124183006535943  0.000000  0.000000  0.000000  -36.28484733879313  14.984571989900193  29.993923000792755  67.45260979928062  7.361005186153449  16.759679363476728  47.12198217164647  70.36803641686235  -30.756004494851805  14.980298585133577  120.000000
2.552941176470588  0.000000  0.000000  0.000000  -35.977982809310085  14.739154946198056  29.702425548602076  67.21247144761374  7.120897206111516  16.087755279026602  47.009412797091045  70.02481363671679  -32.02009691932888  14.689618200337218  120.000000
2.5934640522875814  0.000000  0.000000  0.000000  -35.6440178870782  14.473064832405125  29.386909707489796  66.92952321943675  6.8745135121617365  15.361838288063693  46.91375911245852  69.61523584528315  -33.36900597020746  14.406965672856384  120.000000
2.6339869281045747  0.000000  0.000000  0.000000  -35.28791814182871  14.189876429499808  29.05245856384536  66.6036545645999  6.627420108280126  14.590687346196734  46.841678067829065  69.13994916839005  -34.78250913674362  14.141031630350357  120.000000
2.6745098039215685  0.000000  0.000000  0.000000  -34.91616981464559  13.894155802891248  28.703444586738296  66.24042605407118  6.384465719117125  13.786501127788062  46.79985743430345  68.60559480254949  -36.23490610604484  13.89764498335163  120.000000
2.7150326797385618  0.000000  0.000000  0.000000  -34.53628687307204  13.590953141140286  28.344088868431285  65.85159059700165  6.149218295717652  12.964560098524812  46.79530297367523  68.02480539347768  -37.69465390935096  13.681826131273551  120.000000
2.755555555555555  0.000000  0.000000  0.000000  -34.1566013650304  13.28519473971891  27.979039486305354  65.45293104497676  5.923789850255979  12.1414129984615  46.83368436238705  67.41465084996798  -39.12537491758497  13.498273077780363  120.000000
2.796078431372549  0.000000  0.000000  0.000000  -33.785955852133256  12.982060557146193  27.613144129984377  65.06074852727728  5.709171037963624  11.334654338192193  46.9163367836347  66.79386876161581  -40.489361161974216  13.34499878533945  120.000000
2.836601307189542  0.000000  0.000000  0.000000  -33.43373566990482  12.686625135829232  27.250704882572695  64.68991593481879  5.506245909651887  10.561891196753574  47.03869096057692  66.17986751075124  -41.74896110702581  13.216037662496296  120.000000
2.8771241830065355  0.000000  0.000000  0.000000  -33.109040645960995  12.40298992737221  26.895246940290114  64.35377733614611  5.3168104336730275  9.838795489590611  47.192653073689634  65.58729545632877  -42.86772035222928  13.108555681162269  120.000000
2.917647058823529  0.000000  0.000000  0.000000  -32.81856144208328  12.13499919900074  26.54966047872001  64.0634179458962  5.1428408341854635  9.179599901838165  47.36954528480821  65.02807489167253  -43.815637733277384  13.020952309908903  120.000000
2.9581699346405226  0.000000  0.000000  0.000000  -32.56607225022924  11.886705426381392  26.21663379914153  63.82617610773087  4.986047695799088  8.596356499455634  47.561265343563115  64.51112637806479  -44.57440086707064  12.951598931708693  120.000000
2.998692810457516  0.000000  0.000000  0.000000  -32.35320971699888  11.661882489483755  25.89883580010321  63.644658567406125  4.848192534470643  8.097278055413907  47.76073298178756  64.04230328658022  -45.13984729543381  12.899840374208903  120.000000
3.039215686274509  0.000000  0.000000  0.000000  -32.1797053065408  11.463946176136693  25.599237142508265  63.51662216273239  4.731131474807215  7.686218446502652  47.96191392888663  63.62467123392732  -45.52265056157935  12.865446879812021  120.000000
3.079738562091503  0.000000  0.000000  0.000000  -32.04364325035965  11.29583719051718  25.32145551519541  63.43559705035847  4.636806312143761  7.36280399297596  48.15967611106146  63.25881462866294  -45.74550535727104  12.848106540532841  120.000000
3.1202614379084963  0.000000  0.000000  0.000000  -31.94202105231891  11.15982311671845  25.07000888545102  63.3922148726318  4.567025136957079  7.123025289413521  48.34969684738938  62.94324276211255  -45.83915640013049  12.847327982512285  120.000000
3.1607843137254896  0.000000  0.000000  0.000000  -31.871164423166984  11.057238038299795  24.850313966547485  63.375740473608445  4.523031147407983  6.959948216236268  48.52833822727366  62.67498225500153  -45.83815441919606  12.862241775082774  120.000000
3.2013071895424834  0.000000  0.000000  0.000000  -31.827063062706408  10.988197540370997  24.668288810688292  63.375484095283525  4.504974482850564  6.864477075122755  48.69254201671224  62.45009681666727  -45.777192727011204  12.891637198066347  120.000000
3.2418300653594767  0.000000  0.000000  0.000000  -31.805590634743673  10.95126678609449  24.529614050830705  63.38202817255299  4.511424146060439  6.8259322196099586  48.839702705775956  62.26423503371097  -45.687824473961854  12.933914676279784  120.000000
3.28235294117647  0.000000  0.000000  0.000000  -31.802615196101765  10.943282467506561  24.43868173844237  63.38805259247136  4.539082739096117  6.832629086427615  48.967556523527435  62.11310732338446  -45.595924384905636  12.987053109791074  120.000000
3.322875816993464  0.000000  0.000000  0.000000  -31.81408788767316  10.959330545495314  24.39761469141029  63.38879960899072  4.582845802087131  6.872342215326234  49.074105381657006  61.992856829448186  -45.5201270111565  13.04854253065337  120.000000
3.363398692810457  0.000000  0.000000  0.000000  -31.836127208501587  10.992913357705293  24.405571419401966  63.382082943729046  4.636347429173746  6.93274289138022  49.15766795807387  61.90018349765795  -45.47180246462267  13.115433668960698  120.000000
3.4039215686274504  0.000000  0.000000  0.000000  -31.865141838501195  11.036288144847438  24.458606329208894  63.367989189801925  4.692757215236748  7.001737036276597  49.21700906871969  61.83226181689447  -45.45637072471993  13.18452874674097  120.000000
3.444444444444444  0.000000  0.000000  0.000000  -31.898030548938227  11.080936149269476  24.54997682812869  63.348378012476964  4.745631803551609  7.0677503682208425  49.251622895103296  61.78656581681225  -45.475225452702176  13.252592232451962  120.000000
3.4849673202614375  0.000000  0.000000  0.000000  -31.932351604123312  11.118168488613305  24.67072902023954  63.326315661698104  4.789502127255378  7.120018381748009  49.26209479606653  61.76072334411907  -45.52773031186516  13.316508287791239  120.000000
3.525490196078431  0.000000  0.000000  0.000000  -31.966385525129393  11.139760416577701  24.81043591128369  63.305533881946076  4.8202177517602935  7.1489517128816935  49.25059238679504  61.752274793303144  -45.61285491000767  13.373252536949115  120.000000
3.5660130718954246  0.000000  0.000000  0.000000  -31.99897723522294  11.138632712563764  24.957909559745485  63.28990981304103  4.834961632126213  7.146601109916904  49.221400513957086  61.75839018004534  -45.730450886445965  13.419749501125827  120.000000
3.606535947712418  0.000000  0.000000  0.000000  -32.029197418967065  11.10943455509791  25.10190502532808  63.283028793650814  4.832077634958571  7.107165463751909  49.18141465890885  61.775442642936476  -45.88204135937894  13.452548213258671  120.000000
